<svg width="100" height="100" viewBox="0 0 100 100" fill="none" xmlns="http://www.w3.org/2000/svg">
<path fill-rule="evenodd" clip-rule="evenodd" d="M58.493 35.622C61.5567 34.0967 65.4549 31.8513 69.3578 28.775C70.1807 30.4813 70.2708 31.9703 69.8469 33.1727C69.5464 34.02 68.9802 34.757 68.2358 35.3433C67.4295 35.977 66.4227 36.4383 65.3097 36.6877C63.1978 37.1627 60.7321 36.8853 58.493 35.622ZM59.0242 51.2507L63.0796 53.5897C54.7991 58.2237 52.5481 66.8283 49.874 75.2093C47.2003 66.8283 44.9489 58.2237 36.6688 53.5897L40.7242 51.2507C41.1165 51.1026 41.4519 50.8344 41.6821 50.4844C41.9124 50.1344 42.0258 49.7206 42.0062 49.3023C41.6346 41.4533 43.7571 37.9823 46.6201 35.803C47.647 35.0223 48.768 34.6303 49.874 34.6303C50.98 34.6303 52.1011 35.0223 53.1283 35.803C55.9913 37.9823 58.1138 41.4533 57.7422 49.3023C57.7226 49.7206 57.836 50.1344 58.0663 50.4844C58.2966 50.8344 58.6319 51.1026 59.0242 51.2507ZM49.874 0C54.5618 0.125667 59.2612 1.03433 63.3397 2.802C66.164 4.02767 68.7993 5.64667 71.1855 7.58267C72.2632 8.45667 73.1505 9.301 74.128 10.273C76.7643 10.364 80.6171 7.43967 82.4058 4.70333C79.3275 14.78 65.2803 26.6797 55.5553 31.233C55.5513 31.2313 55.5486 31.229 55.5456 31.227C53.8003 29.8963 51.8373 29.231 49.874 29.231C47.9107 29.231 45.9481 29.8963 44.2028 31.227C44.1998 31.2287 44.1971 31.2317 44.1931 31.233C34.4678 26.6797 20.4209 14.78 17.3426 4.70333C19.131 7.43967 22.9838 10.364 25.6201 10.273C26.5979 9.30133 27.4852 8.45667 28.5625 7.58267C30.9488 5.64667 33.5841 4.02767 36.4084 2.802C40.4872 1.03433 45.1866 0.125667 49.874 0ZM41.255 35.622C38.1917 34.0967 34.2932 31.8513 30.3906 28.775C29.5677 30.4813 29.4776 31.9703 29.9012 33.1727C30.202 34.02 30.7682 34.757 31.5123 35.3433C32.3189 35.977 33.3257 36.4383 34.4387 36.6877C36.5506 37.1627 39.016 36.8853 41.255 35.622Z" fill="#FE0000"/>
<path fill-rule="evenodd" clip-rule="evenodd" d="M73.6322 25.0053C75.7808 22.8403 77.674 20.444 79.1963 18.3057L79.9695 19.7587C82.4586 24.731 83.7518 29.6833 83.7518 35.2567L83.7465 44.1007L83.7932 48.6853C83.9735 59.9407 86.4125 71.3283 91.9375 81.7497L80.3777 72.4423L72.1984 85.6953L63.6054 77.6183L49.874 99.868L36.1426 77.6187L27.55 85.6957L19.3707 72.4427L7.81055 81.75C13.3356 71.3287 15.7746 59.941 15.9552 48.6857L16.0019 44.101L15.9966 35.257C15.9966 29.6833 17.2895 24.731 19.7793 19.759L20.5521 18.306C22.0744 20.4443 23.9673 22.8403 26.1162 25.0057L25.4452 26.3973C24.1415 29.1003 23.7099 32.1227 24.7254 34.997C25.3801 36.8483 26.5749 38.436 28.1152 39.648C29.6108 40.825 31.3808 41.6183 33.2339 42.035C34.4411 42.3063 35.6709 42.418 36.8928 42.38C36.6077 43.9937 36.4832 45.6673 36.4751 47.3727L25.5707 53.6613L33.9854 58.371C34.6579 58.7475 35.2982 59.1789 35.8996 59.6607C42.8371 65.88 47.008 84.279 49.8744 93.266C52.741 84.279 56.9117 65.88 63.8495 59.6607C64.4508 59.1788 65.0911 58.7474 65.7637 58.371L74.1784 53.6613L63.2736 47.3727C63.2656 45.6673 63.1411 43.9937 62.856 42.38C64.0778 42.418 65.3077 42.3063 66.5148 42.035C68.368 41.6183 70.1383 40.825 71.6335 39.648C73.1735 38.436 74.3687 36.8483 75.023 34.997C76.0389 32.1227 75.6069 29.1007 74.3036 26.3973L73.6322 25.0053Z" fill="#FE0000"/>
</svg>
