<svg width="101" height="100" viewBox="0 0 101 100" fill="none" xmlns="http://www.w3.org/2000/svg">
<path fill-rule="evenodd" clip-rule="evenodd" d="M39.0159 5.64828C33.0419 8.74807 28.1544 11.3711 28.1554 11.4778C28.1581 11.7532 42.4931 18.9846 43.002 18.967C43.2334 18.9592 44.9124 18.1894 46.7328 17.2564L50.0433 15.5604L53.6588 17.4115L57.274 19.2629L63.1947 16.6129C72.1159 12.6198 73.0425 12.1822 72.8972 12.0352C72.7045 11.8401 69.5046 10.1279 60.8232 5.57523C56.6275 3.3749 52.5553 1.21755 51.7735 0.781008C50.9919 0.344467 50.2456 -0.0067005 50.1152 9.70454e-05C49.9849 0.00689459 44.99 2.5486 39.0159 5.64828ZM12.8141 19.1634L6.5952 22.3631V36.4059C6.5952 44.1295 6.67686 50.4486 6.77703 50.4486C6.87685 50.4486 9.93654 49.1274 13.5762 47.5127L20.1937 44.5769V29.7748L23.4275 31.5297C25.9194 32.8808 28.4128 34.2292 30.9077 35.5747L35.154 37.8648L37.0435 37.0137C38.2285 36.4791 39.4111 35.9393 40.5914 35.3943C41.5034 34.9713 43.7422 33.9668 45.5664 33.1618C47.3905 32.3565 49.0791 31.5467 49.3185 31.3621C49.6366 31.1169 45.7581 28.982 34.9732 23.4654C26.8437 19.3071 19.9314 15.918 19.6126 15.9342C19.2938 15.9505 16.2345 17.4034 12.8141 19.1634ZM74.018 20.0619C69.7826 21.9665 66.3143 23.6009 66.3103 23.6941C66.3066 23.7872 68.6151 25.1545 71.4405 26.7319C74.2658 28.3098 76.5774 29.6851 76.5774 29.7886C76.5774 29.892 74.0774 31.0986 71.0221 32.4706C67.9663 33.8422 60.2428 37.3165 53.8582 40.1914L32.4654 49.8234C27.0841 52.2466 22.2335 54.4307 21.6863 54.6776C10.6946 59.6339 7.67343 61.0092 7.25854 61.2452C6.84134 61.4829 6.74684 62.8638 6.67258 69.7941L6.58398 78.0599L12.1452 80.8824L17.7062 83.7048L25.4175 80.2383C29.6588 78.3318 33.1288 76.6721 33.1288 76.5498C33.1288 76.428 32.345 75.9193 31.3876 75.419C30.4296 74.9188 28.4522 73.8114 26.9929 72.9576C25.5336 72.1038 24.0786 71.3205 23.7591 71.2165C23.4397 71.113 23.1831 70.9317 23.1883 70.8135C23.1936 70.6957 26.5893 69.089 30.7338 67.243C38.7838 63.6579 44.9442 60.8948 58.1698 54.9372C64.0838 52.2738 69.9986 49.612 75.9141 46.9519C81.113 44.6144 87.1577 41.8845 89.3468 40.8853L93.3268 39.0688L93.4153 30.7088L93.5042 22.3493L87.8638 19.4655C84.7615 17.8796 82.1097 16.5859 81.9707 16.5906C81.8318 16.595 78.2531 18.1569 74.018 20.0619ZM91.8156 50.2214C90.9845 50.6258 89.3427 51.3829 88.1673 51.9038C86.9919 52.4247 84.7615 53.4272 83.2108 54.1319L80.3916 55.4127L80.3273 62.752C80.2918 66.7885 80.1426 70.0732 79.9957 70.0519C79.662 70.0024 74.3782 67.3032 69.0669 64.4683C65.2334 62.4225 64.9925 62.3411 64.0917 62.7855C63.571 63.0426 60.4584 64.4331 57.1749 65.8761C53.8912 67.3189 51.0977 68.5936 50.9663 68.7091C50.8353 68.8243 57.4438 72.3921 65.6523 76.6379L80.5765 84.3575L86.9518 81.0724C90.4578 79.2659 93.4392 77.618 93.5765 77.4107C93.8856 76.9447 93.8591 49.4221 93.5497 49.4593C93.4273 49.474 92.6468 49.817 91.8156 50.2214ZM56.5115 82.5259C55.4057 82.9995 54.3001 83.4737 53.1948 83.9487C49.8572 85.387 50.5113 85.4347 46.5405 83.4657C43.8958 82.1544 42.7558 81.7497 42.261 81.9462C41.8898 82.0934 38.6955 83.5249 35.1619 85.1272C31.6286 86.7295 28.6151 88.0403 28.4652 88.0403C26.9827 88.0403 29.4473 89.5071 38.9576 94.2857L50.111 99.8893L54.8037 97.5816C57.3848 96.3123 62.5906 93.7706 66.3727 91.9334C70.1543 90.0957 73.2018 88.5446 73.1447 88.4861C73.0873 88.4278 69.9185 86.807 66.1027 84.8843L59.1649 81.389L56.5115 82.5259Z" fill="#FE0000"/>
</svg>
