<svg width="101" height="100" viewBox="0 0 101 100" fill="none" xmlns="http://www.w3.org/2000/svg">
<g clip-path="url(#clip0_14805_419)">
<path d="M21.6332 47.4918C21.6333 46.9396 21.7425 46.3929 21.9545 45.883C22.1664 45.3732 22.477 44.9102 22.8684 44.5207C23.2598 44.1312 23.7242 43.8228 24.2351 43.6133C24.746 43.4038 25.2932 43.2973 25.8454 43.2999L32.8292 43.3227C33.9426 43.3227 35.0105 43.765 35.7978 44.5523C36.5852 45.3397 37.0275 46.4076 37.0275 47.521V73.9276C37.8137 73.6942 38.8235 73.4454 39.9284 73.1853C40.6958 73.005 41.3798 72.5707 41.8694 71.9528C42.3589 71.3348 42.6253 70.5696 42.6251 69.7812V37.0251C42.6251 35.9115 43.0674 34.8436 43.8547 34.0561C44.642 33.2686 45.7099 32.8262 46.8235 32.8259H53.821C54.9345 32.8262 56.0024 33.2686 56.7897 34.0561C57.5771 34.8436 58.0194 35.9115 58.0194 37.0251V67.4259C58.0194 67.4259 59.7715 66.717 61.478 65.9967C62.1119 65.7286 62.6528 65.2797 63.0334 64.7062C63.414 64.1327 63.6171 63.4597 63.6178 62.7715V26.5292C63.6178 25.4158 64.06 24.348 64.8471 23.5607C65.6343 22.7734 66.7019 22.331 67.8153 22.3308H74.8129C75.9264 22.3308 76.9942 22.7731 77.7816 23.5605C78.5689 24.3478 79.0113 25.4157 79.0113 26.5292V56.3739C85.078 51.9771 91.2259 46.6893 96.1048 40.3308C96.8129 39.4079 97.2812 38.3241 97.4682 37.1762C97.6552 36.0283 97.5552 34.8519 97.1771 33.7519C94.9186 27.2542 91.3292 21.2994 86.6373 16.2687C81.9454 11.238 76.2551 7.24214 69.9304 4.53683C63.6057 1.83153 56.7858 0.476361 49.9073 0.558051C43.0288 0.639739 36.2431 2.15649 29.9845 5.01123C23.7258 7.86598 18.1319 11.9958 13.561 17.1366C8.98999 22.2772 5.54253 28.3156 3.43918 34.8652C1.33585 41.4147 0.622958 48.3312 1.34613 55.1721C2.0693 62.013 4.21261 68.6276 7.6389 74.5926C8.23577 75.6215 9.11389 76.4588 10.1701 77.0061C11.2262 77.5533 12.4167 77.7878 13.6015 77.682C14.9251 77.5658 16.5731 77.4007 18.5324 77.1706C19.3854 77.0738 20.1728 76.6666 20.7448 76.0265C21.3168 75.3864 21.6333 74.5583 21.6341 73.6999L21.6332 47.4918Z" fill="#FE0000"/>
<path d="M21.4805 89.8455C28.8563 95.2114 37.573 98.4325 46.6659 99.152C55.7589 99.8707 64.8736 98.061 73.0016 93.9211C81.1296 89.7813 87.9536 83.474 92.7194 75.6966C97.4845 67.9191 100.006 58.9748 100.003 49.8534C100.003 48.7152 99.9503 47.5892 99.8747 46.4697C81.8105 73.4111 48.4569 86.0065 21.482 89.8415" fill="#FE0000"/>
</g>
<defs>
<clipPath id="clip0_14805_419">
<rect width="100" height="100" fill="white" transform="translate(0.666016)"/>
</clipPath>
</defs>
</svg>
