<svg width="100" height="100" viewBox="0 0 100 100" fill="none" xmlns="http://www.w3.org/2000/svg">
<path fill-rule="evenodd" clip-rule="evenodd" d="M9.87174 44.2742C32.2368 32.551 47.1255 24.7612 54.6018 20.982C75.8805 10.2614 80.3535 8.41038 83.229 8.33325C83.868 8.33325 85.2738 8.48751 86.2323 9.41303C86.9991 10.1843 87.1908 11.1869 87.3186 11.9582C87.4464 12.7295 87.5742 14.3491 87.4464 15.5832C86.2962 30.2372 81.312 65.7925 78.756 82.1434C77.6697 89.0848 75.561 91.3986 73.5162 91.6299C69.0432 92.0927 65.6565 88.0821 61.3752 84.6886C54.6018 79.3668 50.8317 76.0504 44.25 70.8058C36.6459 64.7899 41.5662 61.4735 45.9114 56.0746C47.0616 54.6863 66.6789 33.0909 67.0623 31.1627C67.1262 30.9313 67.1262 30.0058 66.6789 29.5431C66.2316 29.0803 65.5926 29.2346 65.0814 29.3888C64.3785 29.5431 53.6433 38.1812 32.748 55.2262C29.6808 57.7714 26.9331 59.0054 24.441 58.9283C21.6932 58.8512 16.4534 57.0772 12.4916 55.5347C7.69914 53.6837 3.86513 52.681 4.18463 49.4417C4.37633 47.7449 6.29333 46.0481 9.87174 44.2742Z" fill="#FE0000"/>
</svg>
