<svg width="101" height="100" viewBox="0 0 101 100" fill="none" xmlns="http://www.w3.org/2000/svg">
<path fill-rule="evenodd" clip-rule="evenodd" d="M7.40357 2.5445C17.7755 15.0284 25.7398 22.043 29.56 25.4078C30.862 26.5545 31.6827 27.2773 31.9532 27.6482C32.8321 28.853 32.5013 29.936 30.9957 30.7849C30.1584 31.2569 28.4371 31.735 27.5752 31.735C26.6004 31.735 26.2657 31.3621 26.2657 31.3621C26.1972 31.2977 26.1323 31.2424 26.066 31.1859C25.5853 30.7766 25.0301 30.3037 22.4797 25.8142C18.4501 19.6134 15.0778 14.4696 14.9858 14.3835C14.773 14.1843 14.7767 14.191 22.0688 27.1301C23.0058 29.2747 22.6007 30.3399 22.3956 30.8794C22.3427 31.0183 22.3032 31.1223 22.3032 31.201C22.3032 31.9823 22.0882 32.393 21.1162 33.4681C19.4959 35.2607 18.7716 37.2749 18.2488 41.4433C17.6626 46.1159 16.0144 49.4168 11.4467 55.0664C8.77288 58.3732 8.33537 58.9791 7.6607 60.3123C6.81089 61.9905 6.57722 62.9305 6.48252 65.05C6.38242 67.2909 6.57737 68.7386 7.26775 70.8814C7.87215 72.7568 8.50304 73.9955 10.1159 76.4727C11.5077 78.6109 12.3092 80.1995 12.3092 80.8209C12.3092 81.3155 12.4044 81.3159 14.5611 80.8332C19.7226 79.6773 23.9138 77.6441 26.2709 75.1532C27.7297 73.6109 28.0722 72.7596 28.0833 70.6464C28.0906 69.2641 28.0416 68.975 27.6648 68.1795C27.0516 66.8855 25.9351 65.8095 23.4744 64.1414C20.2501 61.9555 18.873 60.1959 18.4926 57.7759C18.1806 55.79 18.5426 54.3891 20.3262 50.6818C22.1724 46.8445 22.6299 45.2092 22.9394 41.3412C23.1393 38.8423 23.4161 37.8567 24.1402 37.0657C24.8952 36.2408 25.575 35.9614 27.4437 35.7082C30.4903 35.2955 32.4302 34.5138 34.0248 33.0566C35.4082 31.7925 35.987 30.5745 36.0758 28.7408L36.1433 27.351L35.3702 26.4572C32.5708 23.2203 5.52881 0 5.35653 0C5.31973 0 6.24093 1.1451 7.40357 2.5445ZM13.8806 67.5859C14.5136 66.4741 14.1772 65.045 13.1186 64.3468C12.1182 63.6873 10.5642 63.9977 10.5642 64.8577C10.5642 65.12 10.7104 65.3109 11.0401 65.4791C11.5952 65.7623 11.6354 66.0809 11.1987 66.7318C10.7564 67.3909 10.7921 67.9705 11.2994 68.3645C12.1171 68.9995 13.2745 68.65 13.8806 67.5859Z" fill="#FE0000"/>
<path d="M32.9317 6.96726C31.6828 6.77513 31.6301 6.75258 32.2178 6.66304C33.3441 6.49126 36.0037 6.72536 37.8364 7.15754C42.1149 8.16608 46.0081 10.7497 50.1639 15.3383L51.2678 16.5573L52.8475 16.3055C59.5011 15.2451 66.27 16.0879 71.9316 18.6815C73.4889 19.3951 75.9448 20.8154 76.2516 21.1804C76.3491 21.2968 76.5287 22.0456 76.6505 22.8446C77.0708 25.609 76.8602 27.7279 76.0077 29.3105C75.544 30.1717 75.518 30.4446 75.8299 31.1817C76.0788 31.7698 76.7731 32.2051 77.4606 32.2042C78.8674 32.2023 80.3819 29.9469 81.0835 26.8086L81.362 25.562L81.9141 26.1822C84.943 29.585 87.3213 34.2255 87.7302 37.5287L87.8364 38.3899L87.3277 37.6069C86.4515 36.2597 85.5712 35.3426 84.4438 34.6029C82.4119 33.2696 80.2633 32.8158 74.5735 32.5184C69.4343 32.2499 66.5258 31.8146 63.6419 30.882C58.7347 29.2954 56.2611 27.1825 50.4326 19.5988C47.8437 16.2304 46.2435 14.3667 44.6518 12.8658C41.0349 9.45554 37.481 7.66704 32.9317 6.96726Z" fill="#FE0000"/>
<path d="M77.4104 14.4882C77.5399 12.231 77.8485 10.7422 78.4694 9.38258C78.7147 8.8444 78.9449 8.40394 78.9805 8.40394C79.016 8.40394 78.9093 8.80117 78.7429 9.28658C78.2921 10.6061 78.2178 12.4109 78.5287 14.5107C78.923 17.175 79.1473 17.5594 81.987 20.4374C83.3191 21.7874 84.8682 23.4899 85.4298 24.2209L86.451 25.5499L85.4298 24.6001C84.1812 23.4385 81.3091 21.1733 80.6745 20.8494C80.2492 20.6323 80.1863 20.636 79.9237 20.895C79.6821 21.1336 79.631 21.4922 79.5973 23.1874C79.5453 25.8294 79.182 27.5253 78.3058 29.2209C77.8316 30.138 77.7569 29.9423 78.1859 28.9071C78.5063 28.1342 78.5387 27.7944 78.5364 25.2368C78.5314 20.0978 77.916 18.8624 74.3081 16.746C73.3945 16.2098 71.8883 15.4366 70.9619 15.0276C70.0351 14.6186 69.2993 14.2624 69.3258 14.2358C69.4284 14.1349 72.9469 15.1534 74.3628 15.6936C76.4695 16.4972 76.8168 16.6013 77.073 16.5044C77.2445 16.4394 77.3274 15.9441 77.4104 14.4882Z" fill="#FE0000"/>
<path d="M31.5932 10.5429C31.2535 14.5104 32.8223 19.8179 35.3577 23.2795C37.3232 25.9629 40.3699 28.0481 42.6192 28.2494C44.092 28.3813 44.5346 27.9241 43.8683 26.9592C42.9433 25.6195 41.8056 23.5566 41.5045 22.6735C41.3174 22.1248 40.911 20.5042 40.6012 19.072C39.5436 14.1827 38.5041 12.2786 36.1028 10.8324C35.2278 10.3054 33.3591 9.61559 32.2753 9.41954L31.6981 9.31509L31.5932 10.5429Z" fill="#FE0000"/>
<path d="M74.3355 49.0427C62.4867 44.3114 58.3131 40.2049 58.3131 33.2759C58.3131 32.2562 58.3486 31.4219 58.3919 31.4219C58.4348 31.4219 58.8934 31.7584 59.4104 32.1697C61.8133 34.0809 64.5039 34.8971 71.9521 35.9747C76.3355 36.6089 78.8022 37.1211 81.0775 37.8694C88.3092 40.2479 92.7837 45.0748 93.8509 51.6495C94.1609 53.5595 93.979 57.1423 93.4762 59.0304C93.0796 60.5214 91.8683 63.2095 91.5473 63.3127C91.4585 63.3413 91.3709 63.0027 91.3481 62.5423C91.2259 60.0736 89.9682 57.67 87.8556 55.8695C85.4536 53.8227 82.2264 52.1932 74.3355 49.0427Z" fill="#FE0000"/>
<path d="M65.4449 48.5218C65.6113 49.0132 65.8684 50.1318 66.017 51.0082C66.9657 56.6091 64.0011 61.1346 58.2337 62.8882C57.6233 63.0741 55.2181 63.5405 52.8894 63.9255C48.1748 64.7036 46.0706 65.255 43.9568 66.2646C42.4577 66.9809 40.6428 68.0536 40.7506 68.16C40.7854 68.1946 41.1276 68.1136 41.5108 67.98C44.1765 67.0518 47.1432 66.5714 51.6508 66.3386C53.4392 66.2468 55.4738 66.0996 56.1718 66.0127C60.1872 65.5109 62.9699 64.3014 65.1344 62.1168C66.3388 60.9014 67.0569 59.7691 67.6354 58.1718C68.0019 57.1591 68.0516 56.7827 68.0548 54.9877C68.0575 53.1596 68.0129 52.825 67.6158 51.6996C67.0952 50.2255 66.4811 49.1186 65.7038 48.2536L65.1426 47.6282L65.4449 48.5218Z" fill="#FE0000"/>
<path d="M71.4489 60.5741C69.8743 57.2182 69.5127 53.9777 70.3753 50.9559C70.4678 50.6327 70.616 50.3686 70.7053 50.3686C70.7947 50.3686 71.1662 50.5677 71.5309 50.8109C72.2562 51.2955 73.711 52.1109 77.5873 54.2068C82.4242 56.8223 85.1823 58.8473 87.0578 61.1609C88.7004 63.1873 89.7165 65.495 90.2057 68.3091C90.4829 69.9032 90.3206 73.7386 89.908 75.3441C88.6074 80.405 85.5849 84.3805 81.274 86.7005C80.6422 87.04 80.0751 87.3191 80.014 87.3205C79.9524 87.3218 80.1827 86.7414 80.5255 86.0309C81.9756 83.0245 82.1407 80.1 81.0443 76.845C80.3728 74.8518 79.0042 72.42 76.2402 68.31C73.0271 63.5309 72.2394 62.2595 71.4489 60.5741Z" fill="#FE0000"/>
<path d="M41.7946 71.5818C36.8111 72.3846 31.3401 75.0005 26.9431 78.6823L25.634 79.7782L26.7844 79.9564C32.788 80.8859 34.4046 81.71 38.5689 85.9641C40.9654 88.4118 41.7748 88.9568 43.7625 89.46C46.682 90.1991 49.5599 88.8409 50.5469 86.2582C50.9879 85.1041 50.9293 83.1932 50.4234 82.2336C49.2194 79.9491 45.713 79.2105 44.0174 80.8841C42.6051 82.2782 43.0166 84.3782 44.7731 84.7396C45.1753 84.8223 45.1638 84.805 44.6707 84.5837C43.9019 84.2386 43.568 83.7609 43.5637 83.0005C43.5538 81.2173 45.6117 80.2159 47.5261 81.0723C48.9278 81.6996 49.4846 82.5196 49.4846 83.9559C49.4846 86.1687 47.5855 87.8359 45.3758 87.5632C44.1946 87.4173 42.7501 86.6682 41.9754 85.7996C40.0265 83.6141 40.7857 80.1655 43.5069 78.8423C45.5785 77.835 48.3323 78.0837 50.4675 79.47C52.9209 81.0637 53.9644 82.5196 56.0778 87.2996C56.7658 88.8555 57.6511 90.6073 58.045 91.1923C60.0463 94.1641 62.4452 95.6214 65.3341 95.6214C66.9274 95.6214 68.1264 95.3327 69.634 94.5859C70.7545 94.0309 72.3428 92.9764 72.2288 92.8636C72.196 92.8314 71.731 92.9746 71.1958 93.1818C68.0416 94.4018 64.8349 94.3177 62.9726 92.9664C61.8001 92.115 60.8541 90.42 60.3677 88.3C60.2838 87.9332 60.0057 86.3123 59.7504 84.6982C59.1031 80.6073 58.4813 78.7682 57.032 76.6582C55.5486 74.4991 52.697 72.6873 49.509 71.8782C47.5202 71.3732 43.9423 71.2359 41.7946 71.5818Z" fill="#FE0000"/>
<path fill-rule="evenodd" clip-rule="evenodd" d="M34.815 39.9523C35.2454 38.3761 36.6357 36.8729 38.0659 36.4373C38.9753 36.1605 40.8552 36.3372 41.7391 36.7827C43.452 37.6464 44.6956 39.6138 44.4257 41.0334C44.0966 42.7652 41.2651 44.1505 38.008 44.173C36.3444 44.1846 35.73 43.9629 35.0947 43.1216C34.7014 42.6006 34.5525 40.9139 34.815 39.9523ZM41.3017 37.3998C42.156 37.9172 42.3757 38.6821 41.8734 39.3899C41.5275 39.8775 40.4564 40.3403 39.6737 40.3403C38.4977 40.3403 37.2148 39.5126 37.2148 38.754C37.2148 37.2299 39.6749 36.4147 41.3017 37.3998Z" fill="#FE0000"/>
</svg>
